<?xml version="1.0" encoding="utf-8"?>
<!-- Generator: Adobe Illustrator 28.0.0, SVG Export Plug-In . SVG Version: 6.00 Build 0)  -->
<svg version="1.1" id="Camada_1" xmlns="http://www.w3.org/2000/svg" xmlns:xlink="http://www.w3.org/1999/xlink" x="0px" y="0px"
	 viewBox="0 0 841.89 244.54" style="enable-background:new 0 0 841.89 244.54;" xml:space="preserve">
<style type="text/css">
	.st0{fill:#324A80;}
	.st1{fill:#1CA284;}
</style>
<path class="st0" d="M11.38,203.47V53.89c0-2.14,1.74-3.88,3.88-3.88h16.98c2.14,0,3.88,1.74,3.88,3.88v127.59
	c0,2.14,1.74,3.88,3.88,3.88h90.95c2.14,0,3.88,1.74,3.88,3.88v14.23c0,2.14-1.74,3.88-3.88,3.88H15.25
	C13.11,207.34,11.38,205.61,11.38,203.47z"/>
<path class="st0" d="M373.04,206.24c-31.76,0-55.53-6.72-71.34-20.15c-15.8-13.43-23.7-33.82-23.7-61.15
	c0-17.86,3.97-32.82,11.91-44.89c7.94-12.06,19.43-21.18,34.47-27.37c15.04-6.18,32.94-9.27,53.7-9.27
	c14.05,0,26.72,1.14,38.02,3.44c11.3,2.29,20.96,5.8,28.97,10.53c8.02,4.73,14.12,10.69,18.32,17.86
	c3.72,6.35,5.79,13.78,6.22,22.29c0.09,1.83-1.38,3.36-3.21,3.36h-17.89c-1.7,0-3.07-1.33-3.2-3.03c-0.44-5.98-2.24-11-5.39-15.06
	c-3.66-4.73-8.63-8.43-14.89-11.11c-6.26-2.67-13.36-4.5-21.3-5.5c-7.94-0.99-16.18-1.49-24.73-1.49c-10.38,0-20.12,0.99-29.2,2.98
	c-9.09,1.99-17.1,5.27-24.05,9.85c-6.95,4.58-12.41,10.53-16.37,17.86c-3.97,7.33-5.95,16.19-5.95,26.57v5.5
	c0,13.89,3.01,25.08,9.05,33.55c6.03,8.47,14.31,14.62,24.85,18.44c10.53,3.82,22.82,5.73,36.87,5.73c17.4,0,31.3-1.75,41.68-5.27
	c10.38-3.51,17.9-8.55,22.56-15.12c4.66-6.56,6.99-14.12,6.99-22.67l0,0c0-1.77-1.44-3.21-3.21-3.21h-64.35
	c-1.77,0-3.21-1.44-3.21-3.21v-13.74c0-1.77,1.44-3.21,3.21-3.21h88.86c1.77,0,3.21,1.44,3.21,3.21v78.32
	c0,1.77-1.44,3.21-3.21,3.21h-10.69c-1.61,0-2.97-1.2-3.18-2.8l-1.77-13.79c-0.33-2.55-3.41-3.73-5.31-1.99
	c-4.59,4.2-9.89,7.72-15.92,10.56c-8.09,3.82-16.99,6.57-26.68,8.24C393.45,205.4,383.42,206.24,373.04,206.24z"/>
<g>
	<path class="st0" d="M191.7,221.81c-15.19,0-29.15-2.45-41.89-7.35c-12.74-4.9-23.79-11.76-33.12-20.57
		c-9.34-8.82-16.58-19.18-21.73-31.1c-5.15-11.92-7.72-24.98-7.72-39.19c0-14.04,2.57-27.02,7.72-38.94
		c5.15-11.92,12.39-22.29,21.73-31.1c9.34-8.82,20.38-15.67,33.12-20.57c12.74-4.9,26.71-7.35,41.89-7.35
		c15.01,0,28.89,2.45,41.63,7.35c12.74,4.9,23.83,11.76,33.25,20.57c9.43,8.82,16.71,19.19,21.86,31.1
		c5.15,11.92,7.72,24.9,7.72,38.94c0,14.21-2.58,27.27-7.72,39.19c-5.15,11.92-12.44,22.29-21.86,31.1
		c-9.43,8.82-20.51,15.67-33.25,20.57C220.59,219.36,206.71,221.81,191.7,221.81z M191.7,203.68c12.04,0,23.21-2,33.51-6
		c10.3-4,19.24-9.63,26.84-16.9c7.59-7.26,13.48-15.75,17.67-25.47c4.19-9.71,6.28-20.29,6.28-31.72c0-11.27-2.09-21.75-6.28-31.47
		c-4.19-9.71-10.08-18.2-17.67-25.47c-7.59-7.26-16.54-12.9-26.84-16.9c-10.3-4-21.47-6-33.51-6c-12.22,0-23.48,2-33.78,6
		c-10.3,4-19.24,9.64-26.84,16.9c-7.59,7.27-13.48,15.76-17.67,25.47c-4.19,9.72-6.28,20.21-6.28,31.47c0,11.43,2.09,22,6.28,31.72
		c4.19,9.72,10.08,18.21,17.67,25.47c7.59,7.27,16.54,12.9,26.84,16.9C168.22,201.69,179.48,203.68,191.7,203.68z"/>
</g>
<path class="st1" d="M278.27,180.66c5.75-8.45,22.43-35.39,17.62-70.29c-0.92-6.65-3.82-25.95-18.73-45.22
	c-8.77-11.34-18.45-18.48-24.33-22.3c-11.66-7.57-22.82-11.43-30.64-13.47c-1.01-0.26-1.63-1.19-1.47-2.15
	c0.71-4.08,1.42-8.16,2.13-12.23c0.28-1.6-1.56-2.78-3.06-1.97c-12.31,6.67-24.62,13.33-36.94,20c-1.21,0.66-1.38,2.22-0.34,3.1
	l33.58,28.04c1.35,1.13,3.48,0.19,3.42-1.5l-0.46-12.24c-0.05-1.37,1.41-2.36,2.78-1.86c11.2,4.04,46.58,19.33,61.18,57.24
	C297.39,143.01,281.28,174.97,278.27,180.66z"/>
<path class="st1" d="M104.9,67.11c-5.75,8.45-22.43,35.39-17.62,70.29c0.92,6.65,3.82,25.95,18.73,45.22
	c8.77,11.34,18.45,18.48,24.33,22.3c11.66,7.57,22.82,11.43,30.64,13.47c1.01,0.26,1.63,1.19,1.47,2.15
	c-0.71,4.08-1.42,8.16-2.13,12.23c-0.28,1.6,1.56,2.78,3.06,1.97c12.31-6.67,24.62-13.33,36.94-20c1.21-0.66,1.38-2.22,0.34-3.1
	l-33.58-28.04c-1.35-1.13-3.48-0.19-3.42,1.5l0.46,12.24c0.05,1.37-1.41,2.36-2.78,1.86c-11.2-4.04-46.58-19.33-61.18-57.24
	C85.78,104.76,101.89,72.8,104.9,67.11z"/>
<path class="st1" d="M547.5,114.03h-69.95v-8.05h69.95V114.03z M503.55,207.29h-9.29v-97.8c0-9.35,1.68-17.02,5.06-23.01
	c3.37-5.98,8.15-10.38,14.34-13.21c6.19-2.82,13.55-4.23,22.08-4.23h11.76v7.84h-13c-10.04,0-17.78,2.2-23.21,6.6
	c-5.44,4.4-8.01,11.97-7.74,22.7v2.48V207.29z"/>
<path class="st1" d="M585.82,209.36c-9.63,0-17.54-2.23-23.73-6.71c-6.19-4.47-9.29-10.69-9.29-18.67c0-5.78,1.48-10.38,4.44-13.82
	c2.96-3.44,6.91-6.09,11.86-7.94c4.95-1.86,10.38-3.13,16.3-3.82l52.2-5.98v6.81l-48.9,5.57c-8.94,0.82-15.65,2.51-20.12,5.06
	c-4.47,2.55-6.71,7.05-6.71,13.51c0,5.92,2.03,10.46,6.09,13.62c4.06,3.17,10.49,4.75,19.29,4.75c8.67,0,16.61-1.48,23.83-4.44
	c7.22-2.96,13.1-7.43,17.64-13.41c4.54-5.98,6.81-13.51,6.81-22.59l2.89,1.44v15.89h-2.89c-3.44,9.77-9.56,17.33-18.36,22.7
	C608.37,206.68,597.92,209.36,585.82,209.36z M644.21,207.29h-8.05v-28.89l-0.62-1.24v-33.63c0-11-2.61-18.98-7.84-23.93
	c-5.23-4.95-13.89-7.43-26-7.43c-11.97,0-21.18,2.34-27.65,7.02c-6.47,4.68-9.7,12.04-9.7,22.08v1.03h-9.08v-1.03
	c0-6.74,1.79-12.93,5.37-18.57c3.58-5.64,8.87-10.18,15.89-13.62c7.02-3.44,15.54-5.16,25.59-5.16c10.04,0,18.12,1.75,24.24,5.26
	c6.12,3.51,10.63,8.19,13.51,14.03c2.89,5.85,4.33,12.28,4.33,19.29V207.29z M606.66,91.75h-8.87l25.38-26.82h11.56L606.66,91.75z"
	/>
<path class="st1" d="M717.46,209.36c-10.46,0-19.64-2.3-27.55-6.91c-7.91-4.61-14.03-10.9-18.36-18.88
	c-4.33-7.98-6.5-16.99-6.5-27.03c0-10.04,2.17-19.05,6.5-27.03c4.33-7.98,10.45-14.24,18.36-18.78c7.91-4.54,17.09-6.81,27.55-6.81
	c8.94,0,17.13,1.69,24.55,5.05c7.43,3.37,13.38,8.08,17.85,14.13c4.47,6.05,6.71,13.07,6.71,21.05v1.24h-9.08v-1.03
	c0-10.04-3.48-17.92-10.42-23.63c-6.95-5.71-16.82-8.56-29.61-8.56c-15.13,0-26.14,4.02-33.01,12.07
	c-6.88,8.05-10.32,18.81-10.32,32.29c0,13.48,3.44,24.24,10.32,32.29c6.88,8.05,17.88,12.07,33.01,12.07
	c12.79,0,22.66-2.85,29.61-8.56c6.94-5.71,10.42-13.52,10.42-23.42v-1.24h9.08v1.24c0,7.84-2.24,14.82-6.71,20.94
	c-4.47,6.12-10.42,10.9-17.85,14.34C734.58,207.64,726.4,209.36,717.46,209.36z"/>
<path class="st1" d="M797.51,91.95h-9.28v-22.9h9.28V91.95z M797.51,207.29h-9.28V105.98h9.28V207.29z"/>
<path class="st1" d="M834.03,207.29h-9.28V69.05h9.28V207.29z"/>
</svg>